<svg width="40" height="40" viewBox="0 0 40 40" fill="none" xmlns="http://www.w3.org/2000/svg">
<rect width="40" height="40" fill="#7B2C33"/>
<g clip-path="url(#clip0)">
<path d="M20 8.88904C15.69 8.88904 12.1875 12.3916 12.1875 16.7015C12.1875 18.1599 12.5912 19.5792 13.3594 20.8031L19.4704 30.8038C19.5747 30.973 19.7309 31.0772 19.9132 31.1033C20.1605 31.1423 20.4341 31.0382 20.5773 30.7908L26.7058 20.6989C27.4349 19.5011 27.8125 18.1078 27.8125 16.7015C27.8125 12.3916 24.31 8.88904 20 8.88904ZM20 20.6078C17.8126 20.6078 16.0938 18.837 16.0938 16.7015C16.0938 14.5531 17.8515 12.7953 20 12.7953C22.1485 12.7953 23.9063 14.5531 23.9063 16.7015C23.9063 18.8239 22.2135 20.6078 20 20.6078Z" fill="white"/>
</g>
<defs>
<clipPath id="clip0">
<rect width="22.2222" height="22.2222" fill="white" transform="translate(8.88892 8.88904)"/>
</clipPath>
</defs>
</svg>
