<svg width="40" height="40" viewBox="0 0 40 40" fill="none" xmlns="http://www.w3.org/2000/svg">
<rect width="40" height="40" fill="#7B2C33"/>
<g clip-path="url(#clip0)">
<path d="M30.4012 25.1458L27.331 22.0756C26.2345 20.9791 24.3705 21.4178 23.9319 22.8432C23.603 23.83 22.5065 24.3783 21.5196 24.1589C19.3267 23.6107 16.3661 20.7598 15.8179 18.4572C15.489 17.4703 16.1469 16.3738 17.1337 16.0449C18.5591 15.6063 18.9977 13.7423 17.9012 12.6458L14.8311 9.57566C13.9539 8.80811 12.6381 8.80811 11.8705 9.57566L9.78722 11.659C7.70389 13.852 10.0065 19.6633 15.16 24.8168C20.3135 29.9703 26.1249 32.3826 28.3179 30.1896L30.4012 28.1063C31.1688 27.2291 31.1688 25.9133 30.4012 25.1458Z" fill="white"/>
</g>
<defs>
<clipPath id="clip0">
<rect width="22" height="22" fill="white" transform="translate(9 9)"/>
</clipPath>
</defs>
</svg>
