<svg width="40" height="40" viewBox="0 0 40 40" fill="none" xmlns="http://www.w3.org/2000/svg">
<rect width="40" height="40" fill="#7B2C33"/>
<path d="M20 9C13.9249 9 9 13.9249 9 20C9 26.0751 13.9249 31 20 31C26.0751 31 31 26.0751 31 20C30.9935 13.9276 26.0724 9.00649 20 9ZM20.7857 20C20.7857 20.4339 20.4339 20.7857 20 20.7857H13.7143C13.2803 20.7857 12.9286 20.4339 12.9286 20C12.9286 19.566 13.2803 19.2142 13.7143 19.2142H19.2143V13.7143C19.2143 13.2803 19.5661 12.9286 20 12.9286C20.434 12.9286 20.7857 13.2803 20.7857 13.7143V20Z" fill="white"/>
</svg>
