<svg width="26" height="26" viewBox="0 0 26 26" fill="none" xmlns="http://www.w3.org/2000/svg">
<path d="M22.7108 3.44576H20.518V1.25302C20.518 0.563823 19.9541 0 19.2653 0H3.28911C2.59996 0 2.03613 0.563823 2.03613 1.25302V21.3012C2.03613 21.9903 2.59996 22.5542 3.28916 22.5542H5.48194V24.747C5.48194 25.4361 6.04551 26 6.73496 26H17.3852C18.0741 26 19.0489 25.6135 19.5505 25.1414L23.0507 21.8466C23.5529 21.3745 23.9632 20.4241 23.9632 19.735L23.9638 4.69888C23.9638 4.00963 23.3999 3.44576 22.7108 3.44576ZM5.48184 4.69883V21.6144H3.28911C3.11935 21.6144 2.97589 21.471 2.97589 21.3012V1.25302C2.97589 1.08326 3.11935 0.939807 3.28911 0.939807H19.2653C19.4348 0.939807 19.5785 1.08326 19.5785 1.25302V3.44581H6.73486C6.04541 3.44581 5.48184 4.00963 5.48184 4.69883ZM22.4066 21.1624L18.9063 24.4569C18.8346 24.5243 18.7413 24.5904 18.6382 24.6533V21.771C18.6382 21.5558 18.725 21.3622 18.8681 21.2181C19.0125 21.075 19.2061 20.988 19.4213 20.988H22.5554C22.5068 21.054 22.4571 21.1148 22.4066 21.1624ZM23.0234 19.7349C23.0234 19.8279 23.0064 19.9357 22.9808 20.0481H19.4213C18.4706 20.05 17.7003 20.8203 17.6984 21.771V25.0222C17.5865 25.0448 17.4788 25.0601 17.3851 25.0601H6.73486V25.0601C6.56475 25.0601 6.42164 24.9167 6.42164 24.7469V4.69878C6.42164 4.52902 6.5648 4.38556 6.73486 4.38556H22.7107C22.8805 4.38556 23.0239 4.52902 23.0239 4.69878L23.0234 19.7349Z" fill="white"/>
<path d="M19.2654 7.83118H10.1811C9.92137 7.83118 9.71118 8.04136 9.71118 8.30105C9.71118 8.56075 9.92142 8.77093 10.1811 8.77093H19.2654C19.5248 8.77093 19.7352 8.56075 19.7352 8.30105C19.7352 8.04136 19.5248 7.83118 19.2654 7.83118Z" fill="white"/>
<path d="M19.2654 14.0963H10.1811C9.92137 14.0963 9.71118 14.3065 9.71118 14.5662C9.71118 14.8259 9.92142 15.0361 10.1811 15.0361H19.2654C19.5248 15.0361 19.7352 14.8259 19.7352 14.5662C19.7352 14.3064 19.5248 14.0963 19.2654 14.0963Z" fill="white"/>
<path d="M15.1931 17.2289H10.1811C9.92137 17.2289 9.71118 17.4391 9.71118 17.6988C9.71118 17.9585 9.92137 18.1686 10.1811 18.1686H15.1931C15.4524 18.1686 15.6626 17.9585 15.6626 17.6988C15.6626 17.4391 15.4524 17.2289 15.1931 17.2289Z" fill="white"/>
<path d="M19.2654 10.9639H10.1811C9.92137 10.9639 9.71118 11.1741 9.71118 11.4337C9.71118 11.6934 9.92142 11.9036 10.1811 11.9036H19.2654C19.5248 11.9036 19.7352 11.6934 19.7352 11.4337C19.7352 11.1741 19.5248 10.9639 19.2654 10.9639Z" fill="white"/>
</svg>
