<svg width="200" height="99" viewBox="0 0 200 99" fill="none" xmlns="http://www.w3.org/2000/svg">
<path d="M32.0071 61.1747C32.4643 61.1964 32.8928 61.2037 33.3071 61.2037C35.0214 61.2037 36.3786 61.0445 37.3286 60.7695C38.5643 60.4149 39.4143 59.6984 39.85 58.6346C40.2571 57.6287 40.4643 56.1451 40.4643 54.1043V8.33131C40.4643 6.29052 40.2643 4.82144 39.85 3.84446C39.4214 2.82407 38.5786 2.10762 37.3428 1.71683C36.1643 1.34775 34.3071 1.1596 31.8214 1.1596L32.0071 0.580649C32.0214 0.595122 32.4857 0.602359 33.2643 0.602359C38.1643 0.602359 55.7357 0.385254 56.7928 0.385254C62.6786 0.385254 67.45 1.72407 70.9786 4.37275C74.4786 6.99249 76.25 11.0524 76.25 16.4438C76.25 20.6991 75.2071 24.3175 73.1428 27.2122C71.0714 30.1142 68.3786 32.307 65.1357 33.7181C61.8786 35.1438 58.4714 35.8675 55.0286 35.8675C53.1786 35.8675 51.6357 35.7083 50.4357 35.3826L50.5143 34.7964C51.5286 35.057 52.7357 35.1945 54.05 35.1945C58.4214 35.1945 62.1571 33.7326 65.1714 30.8451C68.1857 27.9576 69.7214 23.7458 69.7214 18.3326C69.7214 13.057 68.2786 8.83788 65.4357 5.7767C62.5786 2.72275 58.8857 1.16683 54.4428 1.16683C52.0857 1.16683 50.3571 1.30433 49.2857 1.5721C48.1428 1.86881 47.3071 2.54907 46.8143 3.59841C46.3286 4.60433 46.0928 6.22539 46.0928 8.54841V53.7208C46.0928 55.9135 46.3786 57.4767 46.9714 58.4971C47.5643 59.532 48.7214 60.2701 50.4071 60.6899C52.0214 61.0879 54.6 61.2905 58.0571 61.2905L57.9714 61.7681C55.35 61.7681 53.3 61.7392 51.8286 61.6668L43.3286 61.5728L36.7786 61.6668C35.5357 61.7392 33.8786 61.7681 31.8071 61.7681L32.0071 61.1747Z" fill="#020203" stroke="#020203" stroke-width="0.9091" stroke-miterlimit="10"/>
<path d="M138.029 53.3356C136.329 52.3586 134.35 51.15 132.25 49.7823L132.414 8.32241C132.414 6.39741 132.2 4.85596 131.786 3.85728C131.379 2.82965 130.507 2.08425 129.286 1.72965C128.107 1.3461 126.236 1.1507 123.75 1.1507L123.936 0.571754C123.95 0.586228 124.407 0.593465 125.193 0.593465C130.093 0.593465 147.664 0.347412 148.743 0.347412C154.629 0.347412 159.393 1.7007 162.893 4.3711C166.407 6.97636 168.193 11.029 168.193 16.4277C168.193 20.654 167.15 24.2796 165.1 27.1889C162.971 30.1415 160.343 32.2764 157.064 33.7093C153.814 35.1494 150.514 35.8441 146.986 35.8441C145.036 35.8441 143.571 35.6994 142.379 35.381L142.479 34.7731C143.5 35.0408 144.679 35.1856 146.014 35.1856C150.371 35.1856 154.114 33.7093 157.129 30.8073C160.157 27.927 161.7 23.7152 161.7 18.3093C161.7 13.0481 160.243 8.83623 157.379 5.78228C154.543 2.71386 150.843 1.1507 146.393 1.1507C144.107 1.1507 142.329 1.28096 141.25 1.53425C140.121 1.84544 139.3 2.5257 138.786 3.56057C138.293 4.60991 138.05 6.22373 138.05 8.51781V53.3356H138.029Z" fill="#020203" stroke="#020203" stroke-width="0.9091" stroke-miterlimit="10"/>
<path d="M98.2213 61.752C94.4499 61.752 91.2714 61.1006 88.7714 59.8197C86.2714 58.5388 84.3785 56.8381 83.1499 54.7756C81.9214 52.7204 81.2999 50.4697 81.2999 48.0888C81.2999 44.6151 82.3785 41.5395 84.5142 38.9559C86.6856 36.3217 89.8642 33.4414 93.9714 30.4092L94.2356 30.2138L94.0499 29.9316C92.9499 28.2671 92.0499 26.6967 91.3785 25.271C89.6142 21.3414 88.7214 17.9401 88.7214 15.1756C88.7214 12.5487 89.3571 10.0881 90.6214 7.87366C91.8856 5.65195 93.6856 3.85722 95.9714 2.54735C98.2642 1.23024 100.893 0.564453 103.786 0.564453C106.678 0.564453 109.186 1.27366 111.257 2.67037C113.278 4.03814 114.3 6.34669 114.3 9.52366C114.3 11.8973 113.693 14.0829 112.5 16.0151C111.286 17.9908 109.764 19.7276 107.978 21.1967C106.157 22.702 103.714 24.4677 100.721 26.4506C100.636 26.4868 100.093 26.8342 99.1356 27.4783L98.8428 27.6737L99.0428 27.9704C108.321 41.9013 126.993 54.7539 130.928 56.7802C134.35 58.546 137.286 59.6967 139.65 60.196L129.693 60.6302C127 60.6302 122.793 58.3796 117.186 53.9362L116.936 53.7408L116.714 53.9723C111.807 59.1322 105.578 61.752 98.2213 61.752ZM94.3856 30.9809C91.9499 33 90.0214 35.1276 88.6428 37.3131C87.2499 39.5131 86.5499 42.0316 86.5499 44.796C86.5499 47.4881 87.2428 49.9993 88.5928 52.2717C89.9499 54.5441 91.8714 56.3605 94.2999 57.6704C96.7285 58.973 99.4499 59.6388 102.4 59.6388C105.036 59.6388 107.557 59.0888 109.878 58.0033C112.193 56.925 114.286 55.4125 116.107 53.5092L116.4 53.2052L116.05 52.9737C115.686 52.7276 115.136 52.3006 114.407 51.6855C110.686 48.7835 107.071 45.5052 103.664 41.923C100.25 38.3408 97.2928 34.6862 94.8856 31.0605L94.6713 30.7421L94.3856 30.9809ZM101.107 1.8309C96.0071 1.8309 93.4214 4.98616 93.4214 11.2171C93.4214 16.0875 95.0642 21.3342 98.2999 26.827L98.4999 27.1598L98.8142 26.9283C102.236 24.3375 104.9 21.7973 106.728 19.3802C108.593 16.9125 109.543 14.1046 109.543 11.0289C109.543 8.18485 108.778 5.91972 107.264 4.29143C105.728 2.66314 103.664 1.8309 101.107 1.8309Z" fill="#020203" stroke="#020203" stroke-width="0.9091" stroke-miterlimit="10"/>
<path d="M5.4 83.9907C5.4 84.0559 5.38571 84.092 5.36429 84.092C5 84.092 4.73571 84.1282 4.57143 84.1934C4.40714 84.2585 4.29286 84.3743 4.23571 84.5335C4.17857 84.6927 4.14286 84.9387 4.14286 85.2789V94.7809C4.14286 95.8809 3.89286 96.7565 3.38571 97.4078C2.87857 98.0592 2.15 98.3848 1.2 98.3848C0.828571 98.3848 0.535714 98.3197 0.321429 98.1894C0.107143 98.0591 0 97.8855 0 97.6684C0 97.5019 0.05 97.3717 0.15 97.2703C0.25 97.169 0.385714 97.1184 0.564286 97.1184C0.75 97.1184 0.892857 97.1618 0.992857 97.2414C1.09286 97.3282 1.19286 97.4513 1.30714 97.6177C1.40714 97.7697 1.49286 97.8855 1.57143 97.9506C1.65 98.0157 1.75714 98.0519 1.9 98.0519C2.29286 98.0519 2.58571 97.8203 2.77857 97.3572C2.97143 96.894 3.06429 96.1559 3.06429 95.1282V85.2427C3.06429 84.9098 3.02857 84.6637 2.95 84.5118C2.87143 84.3598 2.72143 84.2512 2.5 84.1861C2.27143 84.1282 1.92857 84.092 1.45714 84.092C1.43571 84.092 1.42143 84.0559 1.42143 83.9907C1.42143 83.9256 1.42857 83.8894 1.45714 83.8894L2.41429 83.9039C2.92143 83.9256 3.31429 83.9401 3.6 83.9401C3.88571 83.9401 4.23571 83.9256 4.65 83.9039L5.37143 83.8894C5.38571 83.8894 5.4 83.9256 5.4 83.9907Z" fill="#020203"/>
<path d="M19.1571 93.3771C19.1929 93.3771 19.2214 93.3988 19.25 93.435C19.2786 93.4712 19.2786 93.5073 19.2571 93.5435C18.5143 94.1876 17.7071 94.5133 16.8571 94.5133C16.2071 94.5133 15.65 94.3613 15.1786 94.0646C14.7071 93.7679 14.35 93.3698 14.1143 92.8922C13.8786 92.4073 13.7571 91.8863 13.7571 91.3146C13.7571 90.6488 13.9143 90.0409 14.2286 89.4981C14.5429 88.9554 14.9643 88.5211 15.5071 88.2027C16.0429 87.8843 16.6429 87.7251 17.3 87.7251C17.8929 87.7251 18.35 87.8698 18.6857 88.1665C19.0143 88.4633 19.1786 88.8613 19.1786 89.3751C19.1786 89.5054 19.1643 89.6067 19.1357 89.6646C19.1071 89.7225 19.0571 89.7586 18.9786 89.7586L14.9286 89.7948C14.8714 90.0915 14.8429 90.381 14.8429 90.6633C14.8429 91.633 15.0714 92.4146 15.5357 93.0225C15.9929 93.6304 16.6357 93.9343 17.4429 93.9343C18.0714 93.9343 18.6357 93.7534 19.1357 93.3843H19.1571V93.3771ZM15.6143 88.456C15.3143 88.7165 15.1 89.0856 14.9786 89.5633L18.0429 89.4981C18.0429 89.0422 17.9214 88.6876 17.6857 88.4415C17.45 88.1883 17.1357 88.0652 16.7429 88.0652C16.2857 88.058 15.9143 88.1883 15.6143 88.456Z" fill="#020203"/>
<path d="M38.3 87.9783C38.3 88.0434 38.2857 88.0796 38.25 88.0796C37.9857 88.0796 37.7571 88.1664 37.5643 88.3473C37.3714 88.5283 37.1857 88.8394 37 89.2954L34.9429 94.296C34.9286 94.3394 34.8714 94.3611 34.7643 94.3611C34.6571 94.3611 34.5929 94.3394 34.5857 94.296L32.7286 90.2434L31.0643 94.296C31.05 94.3394 30.9929 94.3611 30.8857 94.3611C30.7786 94.3611 30.7143 94.3394 30.7071 94.296L28.4 89.2592C28.1786 88.7816 28 88.4631 27.85 88.3112C27.7 88.1592 27.5214 88.0796 27.3 88.0796C27.2643 88.0796 27.25 88.0434 27.25 87.9783C27.25 87.9131 27.2643 87.877 27.3 87.877C27.5214 87.877 27.6929 87.8842 27.8071 87.8914L28.4357 87.9059L29.4214 87.8914C29.5857 87.877 29.8214 87.877 30.1286 87.877C30.1643 87.877 30.1786 87.9131 30.1786 87.9783C30.1786 88.0434 30.1643 88.0796 30.1286 88.0796C29.8214 88.0796 29.5857 88.1085 29.4214 88.1737C29.2571 88.2316 29.1714 88.3401 29.1714 88.4848C29.1714 88.5644 29.1929 88.6441 29.2357 88.7381L31.2429 93.0368L32.5429 89.8526L32.2786 89.2664C32.0571 88.7888 31.8786 88.4704 31.7357 88.3184C31.5929 88.1664 31.4143 88.0868 31.2071 88.0868C31.1857 88.0868 31.1714 88.0506 31.1714 87.9855C31.1714 87.9204 31.1857 87.8842 31.2071 87.8842C31.4286 87.8842 31.5929 87.8914 31.7 87.8987L32.3071 87.9131L33.3786 87.8987C33.5286 87.8842 33.7429 87.8842 34.0071 87.8842C34.0429 87.8842 34.0571 87.9204 34.0571 87.9855C34.0571 88.0506 34.0429 88.0868 34.0071 88.0868C33.3786 88.0868 33.0714 88.2171 33.0714 88.4848C33.0714 88.5644 33.0929 88.6441 33.1357 88.7381L35.1286 93.073L36.6786 89.223C36.7571 89.0566 36.7929 88.8973 36.7929 88.7381C36.7929 88.5138 36.6857 88.3546 36.4786 88.246C36.2714 88.1375 35.9429 88.0868 35.4929 88.0868C35.4714 88.0868 35.4571 88.0506 35.4571 87.9855C35.4571 87.9204 35.4643 87.8842 35.4929 87.8842C35.7929 87.8842 36.0143 87.8914 36.1643 87.8987L37.15 87.9131L37.7429 87.8987C37.85 87.8842 38.0214 87.8842 38.25 87.8842C38.2786 87.877 38.3 87.9131 38.3 87.9783Z" fill="#020203"/>
<path d="M51.7286 93.3771C51.7643 93.3771 51.7928 93.3988 51.8214 93.435C51.85 93.4712 51.85 93.5073 51.8286 93.5435C51.0857 94.1876 50.2786 94.5133 49.4286 94.5133C48.7786 94.5133 48.2214 94.3613 47.75 94.0646C47.2786 93.7679 46.9214 93.3698 46.6857 92.8922C46.45 92.4146 46.3286 91.8863 46.3286 91.3146C46.3286 90.6488 46.4857 90.0409 46.8 89.4981C47.1143 88.9554 47.5357 88.5211 48.0786 88.2027C48.6143 87.8843 49.2143 87.7251 49.8714 87.7251C50.4643 87.7251 50.9214 87.8698 51.2571 88.1665C51.5857 88.4633 51.75 88.8613 51.75 89.3751C51.75 89.5054 51.7357 89.6067 51.7071 89.6646C51.6786 89.7225 51.6286 89.7586 51.55 89.7586L47.5 89.7948C47.4428 90.0915 47.4143 90.381 47.4143 90.6633C47.4143 91.633 47.6428 92.4146 48.1071 93.0225C48.5643 93.6304 49.2071 93.9343 50.0143 93.9343C50.6428 93.9343 51.2071 93.7534 51.7071 93.3843H51.7286V93.3771ZM48.1786 88.456C47.8786 88.7165 47.6643 89.0856 47.5428 89.5633L50.6071 89.4981C50.6071 89.0422 50.4857 88.6876 50.25 88.4415C50.0143 88.1883 49.7 88.0652 49.3071 88.0652C48.8571 88.058 48.4857 88.1883 48.1786 88.456Z" fill="#020203"/>
<path d="M60.4643 94.2164C60.4643 94.1513 60.4785 94.1151 60.5143 94.1151C60.8071 94.1151 61.0285 94.0862 61.1714 94.021C61.3143 93.9632 61.4143 93.8474 61.4643 93.6882C61.5214 93.5289 61.5428 93.2829 61.5428 92.9645V84.3454C61.5428 83.9474 61.5071 83.6579 61.4285 83.477C61.35 83.2961 61.2143 83.2092 61.0143 83.2092C60.85 83.2092 60.6 83.2888 60.2571 83.4408H60.2214C60.1857 83.4408 60.1643 83.4119 60.15 83.354C60.1357 83.2961 60.1428 83.2671 60.1714 83.2526L62.2785 82.2322C62.3 82.2178 62.3285 82.2178 62.3643 82.2178C62.3857 82.2178 62.4143 82.2322 62.4571 82.2612C62.4928 82.2901 62.5143 82.3191 62.5143 82.3553V92.9572C62.5143 93.2829 62.5357 93.5217 62.5857 93.6737C62.6357 93.8329 62.7285 93.9414 62.8714 94.0066C63.0143 94.0717 63.2357 94.1079 63.5285 94.1079C63.5643 94.1079 63.5785 94.1441 63.5785 94.2092C63.5785 94.2743 63.5643 94.3105 63.5285 94.3105C63.2857 94.3105 63.0928 94.3033 62.9357 94.296L62.0143 94.2816L61.1285 94.296C60.9714 94.3105 60.7642 94.3105 60.5 94.3105C60.4857 94.3105 60.4643 94.2816 60.4643 94.2164Z" fill="#020203"/>
<path d="M76.7285 87.9276C76.95 88.0579 77.0571 88.2243 77.0571 88.4125C77.0571 88.5572 77.0071 88.6803 76.9142 88.7816C76.8214 88.8829 76.6857 88.9335 76.5142 88.9335C76.4142 88.9335 76.3285 88.9118 76.2571 88.8756C76.1857 88.8395 76.1 88.7816 76 88.702C75.9 88.6151 75.8071 88.55 75.7214 88.4993C75.6357 88.4559 75.5285 88.4342 75.4071 88.4342C75.2642 88.4342 75.1142 88.4921 74.9571 88.6079C74.8 88.7237 74.55 88.9842 74.2071 89.3822V92.9645C74.2071 93.2974 74.2499 93.5434 74.3285 93.6954C74.4142 93.8546 74.5642 93.9631 74.7785 94.021C75 94.0789 75.3357 94.1151 75.8 94.1151C75.8428 94.1151 75.8642 94.1513 75.8642 94.2164C75.8642 94.2816 75.8428 94.3177 75.8 94.3177C75.45 94.3177 75.1714 94.3105 74.9571 94.3033L73.7428 94.2888L72.8357 94.3033C72.6928 94.3177 72.4928 94.3177 72.2428 94.3177C72.2071 94.3177 72.1928 94.2816 72.1928 94.2164C72.1928 94.1513 72.2071 94.1151 72.2428 94.1151C72.5428 94.1151 72.7571 94.0862 72.8999 94.021C73.0428 93.9631 73.1357 93.8546 73.1857 93.6954C73.2357 93.5434 73.2571 93.2974 73.2571 92.9645V89.6645C73.2571 89.2882 73.2142 89.0131 73.1285 88.8467C73.0428 88.6803 72.8928 88.5934 72.6857 88.5934C72.5071 88.5934 72.2142 88.6803 71.7999 88.8467H71.7642C71.7214 88.8467 71.6928 88.825 71.6714 88.7743C71.6571 88.7237 71.6714 88.6875 71.7142 88.6658L73.6214 87.7467C73.6428 87.7395 73.6785 87.7322 73.7214 87.7322C73.8214 87.7322 73.9214 87.8625 74.0357 88.1158C74.1428 88.3691 74.1999 88.702 74.1999 89.1V89.1145C74.65 88.5789 75.0071 88.2171 75.2714 88.0217C75.5357 87.8263 75.7857 87.7322 76.0285 87.7322C76.2785 87.725 76.5071 87.7901 76.7285 87.9276Z" fill="#020203"/>
<path d="M92.05 87.9783C92.05 88.0434 92.0358 88.0796 92 88.0796C91.7286 88.0796 91.4929 88.1809 91.2929 88.3835C91.0929 88.5862 90.9072 88.9118 90.7358 89.3677L88.7286 94.7881C88.3215 95.8664 87.9429 96.7059 87.5858 97.3138C87.2286 97.9217 86.8643 98.3559 86.4858 98.6164C86.1072 98.877 85.6715 99.0072 85.1786 99.0072C84.9358 99.0072 84.7358 98.9493 84.5786 98.8408C84.4215 98.7322 84.3429 98.5658 84.3429 98.3559C84.3429 98.1967 84.3929 98.0809 84.4929 97.9868C84.5929 97.9 84.7143 97.8566 84.8572 97.8566C85 97.8566 85.1215 97.871 85.2215 97.9072C85.3215 97.9434 85.4215 97.9941 85.5358 98.0737C85.5572 98.0882 85.6215 98.1171 85.7215 98.175C85.8286 98.2329 85.9572 98.2618 86.1072 98.2618C86.3715 98.2618 86.6215 98.1461 86.8572 97.9145C87.0929 97.6829 87.3429 97.2921 87.6143 96.7421C87.8858 96.1921 88.2 95.4322 88.5572 94.4625L86.0572 89.2737C85.8072 88.7816 85.6143 88.4631 85.4786 88.3112C85.35 88.1592 85.1786 88.0868 84.9715 88.0868C84.95 88.0868 84.9358 88.0506 84.9358 87.9855C84.9358 87.9204 84.95 87.8842 84.9715 87.8842L85.5286 87.8987C85.6572 87.9131 85.8429 87.9131 86.0715 87.9131L87.1215 87.8987C87.2715 87.8842 87.4858 87.8842 87.7643 87.8842C87.7858 87.8842 87.8 87.9204 87.8 87.9855C87.8 88.0506 87.7858 88.0868 87.7643 88.0868C87.1286 88.0868 86.8072 88.2171 86.8072 88.4704C86.8072 88.5355 86.8358 88.6296 86.8858 88.7381L89.0572 93.2539L90.3715 89.4184C90.4572 89.1506 90.5 88.9408 90.5 88.7816C90.5 88.5283 90.4 88.3473 90.2072 88.2388C90.0072 88.1302 89.6858 88.0796 89.2358 88.0796C89.2143 88.0796 89.2 88.0434 89.2 87.9783C89.2 87.9131 89.2072 87.877 89.2358 87.877C89.5358 87.877 89.7572 87.8842 89.9143 87.8914L90.9 87.9059L91.4929 87.8914C91.6 87.877 91.7715 87.877 92 87.877C92.0358 87.877 92.05 87.9131 92.05 87.9783Z" fill="#020203"/>
<path d="M122.3 94.2165C122.3 94.2817 122.279 94.3178 122.236 94.3178C122.029 94.3178 121.707 94.3034 121.264 94.2817C120.829 94.26 120.507 94.2455 120.307 94.2455C120.064 94.2455 119.757 94.26 119.386 94.2817C119.036 94.3034 118.764 94.3178 118.579 94.3178C118.536 94.3178 118.514 94.2817 118.514 94.2165C118.514 94.1514 118.536 94.1152 118.579 94.1152C118.986 94.1152 119.279 94.079 119.464 93.9994C119.65 93.9198 119.743 93.7896 119.743 93.6014C119.743 93.4494 119.671 93.2106 119.529 92.885L117.636 88.7961H114.529L113.114 92.1975C112.957 92.5738 112.886 92.885 112.886 93.131C112.886 93.7896 113.421 94.1152 114.5 94.1152C114.557 94.1152 114.579 94.1514 114.579 94.2165C114.579 94.2817 114.55 94.3178 114.5 94.3178C114.3 94.3178 114.014 94.3034 113.643 94.2817C113.229 94.26 112.864 94.2455 112.557 94.2455C112.271 94.2455 111.943 94.26 111.571 94.2817C111.243 94.3034 110.964 94.3178 110.75 94.3178C110.693 94.3178 110.671 94.2817 110.671 94.2165C110.671 94.1514 110.7 94.1152 110.75 94.1152C111.057 94.1152 111.321 94.0573 111.529 93.9415C111.743 93.8257 111.943 93.6159 112.136 93.3264C112.329 93.0297 112.536 92.61 112.771 92.0527L116.243 83.7521C116.264 83.7159 116.3 83.7014 116.357 83.7014C116.414 83.7014 116.443 83.7159 116.457 83.7521L120.343 92.0382C120.714 92.8632 121.036 93.4132 121.3 93.6955C121.564 93.9777 121.879 94.1224 122.236 94.1224C122.279 94.1152 122.3 94.1442 122.3 94.2165ZM114.679 88.4415H117.479L116 85.2718L114.679 88.4415Z" fill="#020203"/>
<path d="M134.807 93.4492C134.85 93.4492 134.886 93.4709 134.907 93.5216C134.929 93.5722 134.921 93.6084 134.893 93.6302C134.486 93.9558 134.121 94.1802 133.8 94.3104C133.479 94.4407 133.136 94.513 132.786 94.513C132.321 94.513 131.943 94.4045 131.65 94.1946C131.357 93.9848 131.207 93.6302 131.207 93.1453V89.2301C131.207 88.9407 131.186 88.738 131.15 88.615C131.114 88.492 131.036 88.4124 130.929 88.3762C130.821 88.34 130.636 88.3183 130.371 88.3183C130.329 88.3183 130.307 88.2821 130.307 88.2097C130.307 88.1374 130.329 88.1012 130.371 88.1012C130.807 88.0867 131.164 87.9709 131.443 87.7394C131.714 87.515 131.879 87.2111 131.921 86.8275C131.921 86.7913 131.964 86.7769 132.05 86.7769C132.129 86.7769 132.164 86.7913 132.164 86.8275V88.0578C132.714 88.0433 133.479 87.9926 134.45 87.8913C134.471 87.8913 134.5 87.9348 134.521 88.0144C134.55 88.094 134.564 88.188 134.564 88.2894C134.564 88.3762 134.543 88.4703 134.507 88.5644C134.471 88.6584 134.429 88.7019 134.386 88.6874C133.779 88.5354 133.043 88.4413 132.164 88.4196V92.5736C132.164 93.0295 132.279 93.3696 132.5 93.594C132.721 93.8183 133.043 93.9269 133.464 93.9269C133.971 93.9269 134.407 93.7749 134.779 93.4565L134.807 93.4492Z" fill="#020203"/>
<path d="M148.65 93.3771C148.686 93.3771 148.714 93.3988 148.743 93.435C148.771 93.4712 148.771 93.5073 148.75 93.5435C148.007 94.1876 147.2 94.5133 146.35 94.5133C145.7 94.5133 145.143 94.3613 144.671 94.0646C144.2 93.7679 143.843 93.3698 143.607 92.8922C143.371 92.4146 143.25 91.8863 143.25 91.3146C143.25 90.6488 143.407 90.0409 143.721 89.4981C144.036 88.9554 144.457 88.5211 145 88.2027C145.536 87.8843 146.136 87.7251 146.793 87.7251C147.386 87.7251 147.843 87.8698 148.179 88.1665C148.507 88.4633 148.671 88.8613 148.671 89.3751C148.671 89.5054 148.657 89.6067 148.629 89.6646C148.6 89.7225 148.55 89.7586 148.471 89.7586L144.421 89.7948C144.364 90.0915 144.336 90.381 144.336 90.6633C144.336 91.633 144.564 92.4146 145.029 93.0225C145.486 93.6304 146.129 93.9343 146.936 93.9343C147.564 93.9343 148.129 93.7534 148.629 93.3843H148.65V93.3771ZM145.107 88.456C144.807 88.7165 144.593 89.0856 144.471 89.5633L147.536 89.4981C147.536 89.0422 147.414 88.6876 147.179 88.4415C146.943 88.1883 146.629 88.0652 146.236 88.0652C145.779 88.058 145.407 88.1883 145.107 88.456Z" fill="#020203"/>
<path d="M157.393 94.2164C157.393 94.1513 157.407 94.1151 157.443 94.1151C157.736 94.1151 157.957 94.0862 158.1 94.021C158.243 93.9632 158.343 93.8474 158.393 93.6882C158.45 93.5289 158.471 93.2829 158.471 92.9645V84.3454C158.471 83.9474 158.436 83.6579 158.357 83.477C158.279 83.2961 158.143 83.2092 157.943 83.2092C157.779 83.2092 157.529 83.2888 157.186 83.4408H157.15C157.114 83.4408 157.093 83.4119 157.079 83.354C157.064 83.2961 157.071 83.2671 157.1 83.2526L159.207 82.2322C159.229 82.2178 159.257 82.2178 159.293 82.2178C159.314 82.2178 159.343 82.2322 159.386 82.2612C159.421 82.2901 159.443 82.3191 159.443 82.3553V92.9572C159.443 93.2829 159.464 93.5217 159.514 93.6737C159.564 93.8329 159.657 93.9414 159.8 94.0066C159.943 94.0717 160.164 94.1079 160.457 94.1079C160.493 94.1079 160.507 94.1441 160.507 94.2092C160.507 94.2743 160.493 94.3105 160.457 94.3105C160.214 94.3105 160.021 94.3033 159.864 94.296L158.943 94.2816L158.057 94.296C157.9 94.3105 157.693 94.3105 157.429 94.3105C157.407 94.3105 157.393 94.2816 157.393 94.2164Z" fill="#020203"/>
<path d="M169.271 94.2165C169.271 94.1513 169.279 94.1151 169.307 94.1151C169.6 94.1151 169.829 94.0862 169.971 94.0211C170.121 93.9632 170.221 93.8474 170.279 93.6882C170.336 93.529 170.357 93.2829 170.357 92.9645V89.8454C170.357 89.4474 170.314 89.1579 170.236 88.977C170.15 88.7961 170.014 88.7092 169.814 88.7092C169.614 88.7092 169.371 88.7888 169.071 88.9408H169.057C169.014 88.9408 168.979 88.9119 168.957 88.8612C168.936 88.8033 168.943 88.7671 168.971 88.7454L171.114 87.7467L171.179 87.7323C171.2 87.7323 171.229 87.7467 171.264 87.7757C171.3 87.8046 171.314 87.8336 171.314 87.8697C171.314 87.9494 171.307 88.1665 171.3 88.5355C171.286 88.9046 171.286 89.3388 171.286 89.8382V92.9717C171.286 93.3046 171.314 93.5507 171.364 93.7026C171.421 93.8619 171.514 93.9704 171.657 94.0283C171.8 94.0862 172.021 94.1224 172.314 94.1224C172.35 94.1224 172.364 94.1586 172.364 94.2237C172.364 94.2888 172.35 94.325 172.314 94.325C172.064 94.325 171.857 94.3178 171.707 94.3105L170.821 94.2961L169.936 94.3105C169.779 94.325 169.571 94.325 169.307 94.325C169.286 94.3105 169.271 94.2816 169.271 94.2165ZM170.15 85.5901C170.021 85.4671 169.964 85.2934 169.964 85.0763C169.964 84.852 170.029 84.6855 170.15 84.5625C170.279 84.4395 170.457 84.3816 170.686 84.3816C170.907 84.3816 171.079 84.4395 171.193 84.5625C171.314 84.6855 171.371 84.8592 171.371 85.0763C171.371 85.3007 171.314 85.4744 171.193 85.5901C171.071 85.7132 170.9 85.7711 170.686 85.7711C170.457 85.7783 170.279 85.7132 170.15 85.5901Z" fill="#020203"/>
<path d="M186.321 93.3771C186.357 93.3771 186.386 93.3988 186.414 93.435C186.443 93.4712 186.443 93.5073 186.421 93.5435C185.679 94.1876 184.871 94.5133 184.021 94.5133C183.371 94.5133 182.814 94.3613 182.343 94.0646C181.871 93.7679 181.514 93.3698 181.279 92.8922C181.043 92.4146 180.921 91.8863 180.921 91.3146C180.921 90.6488 181.079 90.0409 181.393 89.4981C181.707 88.9554 182.129 88.5211 182.671 88.2027C183.207 87.8843 183.807 87.7251 184.464 87.7251C185.057 87.7251 185.514 87.8698 185.85 88.1665C186.179 88.4633 186.343 88.8613 186.343 89.3751C186.343 89.5054 186.329 89.6067 186.3 89.6646C186.271 89.7225 186.221 89.7586 186.143 89.7586L182.093 89.7948C182.036 90.0915 182.007 90.381 182.007 90.6633C182.007 91.633 182.236 92.4146 182.7 93.0225C183.157 93.6304 183.8 93.9343 184.607 93.9343C185.236 93.9343 185.8 93.7534 186.3 93.3843H186.321V93.3771ZM182.779 88.456C182.479 88.7165 182.264 89.0856 182.143 89.5633L185.207 89.4981C185.207 89.0422 185.086 88.6876 184.85 88.4415C184.614 88.1883 184.3 88.0652 183.907 88.0652C183.457 88.058 183.079 88.1883 182.779 88.456Z" fill="#020203"/>
<path d="M199.671 87.9276C199.893 88.0579 200 88.2243 200 88.4125C200 88.5572 199.95 88.6803 199.857 88.7816C199.764 88.8829 199.629 88.9335 199.457 88.9335C199.357 88.9335 199.271 88.9118 199.2 88.8756C199.129 88.8395 199.043 88.7816 198.943 88.702C198.843 88.6151 198.75 88.55 198.664 88.4993C198.579 88.4559 198.471 88.4342 198.35 88.4342C198.207 88.4342 198.057 88.4921 197.9 88.6079C197.743 88.7237 197.493 88.9842 197.15 89.3822V92.9645C197.15 93.2974 197.193 93.5434 197.271 93.6954C197.357 93.8546 197.507 93.9631 197.721 94.021C197.943 94.0789 198.279 94.1151 198.743 94.1151C198.786 94.1151 198.807 94.1513 198.807 94.2164C198.807 94.2816 198.786 94.3177 198.743 94.3177C198.393 94.3177 198.114 94.3105 197.9 94.3033L196.686 94.2888L195.779 94.3033C195.636 94.3177 195.436 94.3177 195.186 94.3177C195.15 94.3177 195.136 94.2816 195.136 94.2164C195.136 94.1513 195.15 94.1151 195.186 94.1151C195.486 94.1151 195.7 94.0862 195.843 94.021C195.986 93.9631 196.079 93.8546 196.129 93.6954C196.179 93.5434 196.2 93.2974 196.2 92.9645V89.6645C196.2 89.2882 196.157 89.0131 196.071 88.8467C195.986 88.6803 195.836 88.5934 195.629 88.5934C195.45 88.5934 195.157 88.6803 194.743 88.8467H194.707C194.664 88.8467 194.636 88.825 194.614 88.7743C194.6 88.7237 194.614 88.6875 194.657 88.6658L196.564 87.7467C196.586 87.7395 196.621 87.7322 196.664 87.7322C196.764 87.7322 196.864 87.8625 196.979 88.1158C197.086 88.3691 197.143 88.702 197.143 89.1V89.1145C197.593 88.5789 197.95 88.2171 198.214 88.0217C198.479 87.8263 198.729 87.7322 198.971 87.7322C199.221 87.725 199.45 87.7901 199.671 87.9276Z" fill="#020203"/>
</svg>
