<svg width="70" height="70" viewBox="0 0 70 70" fill="none" xmlns="http://www.w3.org/2000/svg">
<circle cx="35" cy="35" r="29.1667" fill="#7B2C33"/>
<circle cx="35" cy="35" r="34" stroke="#7B2C33" stroke-width="2"/>
<g clip-path="url(#clip0)">
<path d="M35 19.1666C43.7507 19.1666 50.8334 26.2481 50.8334 35C50.8334 37.7771 50.1091 40.4895 48.7337 42.8818L50.7737 49.217C50.916 49.6586 50.7991 50.1428 50.471 50.4709C50.146 50.7958 49.6631 50.9171 49.2171 50.7736L42.8819 48.7336C40.4896 50.109 37.7772 50.8333 35 50.8333C26.2494 50.8333 19.1667 43.7518 19.1667 35C19.1667 26.2493 26.2482 19.1666 35 19.1666ZM35 48.3593C37.5085 48.3593 39.9538 47.6594 42.0714 46.3352C42.376 46.1449 42.7544 46.0934 43.1064 46.2067L47.6796 47.6795L46.2068 43.1063C46.0952 42.7593 46.1423 42.3805 46.3356 42.0713C47.6595 39.9537 48.3594 37.5085 48.3594 35C48.3594 27.6337 42.3663 21.6406 35 21.6406C27.6337 21.6406 21.6407 27.6337 21.6407 35C21.6407 42.3663 27.6337 48.3593 35 48.3593ZM33.4538 35C33.4538 35.8538 34.146 36.5462 35 36.5462C35.8541 36.5462 36.5463 35.8538 36.5463 35C36.5463 34.1459 35.8541 33.4537 35 33.4537C34.146 33.4537 33.4538 34.1459 33.4538 35ZM27.2689 35C27.2689 35.8538 27.9611 36.5462 28.8151 36.5462C29.6692 36.5462 30.3614 35.8538 30.3614 35C30.3614 34.1459 29.6692 33.4537 28.8151 33.4537C27.9611 33.4537 27.2689 34.1459 27.2689 35ZM39.6387 35C39.6387 35.8538 40.3309 36.5462 41.1849 36.5462C42.0387 36.5462 42.7312 35.8538 42.7312 35C42.7312 34.1459 42.0387 33.4537 41.1849 33.4537C40.3309 33.4537 39.6387 34.1459 39.6387 35Z" fill="white"/>
</g>
<defs>
<clipPath id="clip0">
<rect width="31.6667" height="31.6667" fill="white" transform="matrix(-1 0 0 1 50.8334 19.1666)"/>
</clipPath>
</defs>
</svg>
