<svg width="30" height="30" viewBox="0 0 30 30" fill="none" xmlns="http://www.w3.org/2000/svg">
<path d="M25.9988 20.4013V24.7228C25.9989 25.0323 25.8817 25.3302 25.6707 25.5566C25.4598 25.783 25.1708 25.9209 24.8622 25.9426C24.3281 25.9792 23.8918 25.9988 23.5545 25.9988C12.7543 25.9988 4 17.2445 4 6.44431C4 6.10699 4.01833 5.67069 4.05622 5.1366C4.07788 4.82794 4.21581 4.53898 4.44218 4.32804C4.66855 4.11709 4.96651 3.99986 5.27593 4H9.59747C9.74906 3.99985 9.8953 4.05605 10.0078 4.15768C10.1203 4.25932 10.1909 4.39913 10.2061 4.54997C10.2342 4.83107 10.2599 5.05472 10.2843 5.2246C10.5272 6.91963 11.0249 8.56821 11.7607 10.1144C11.8768 10.3589 11.801 10.651 11.581 10.8074L8.94361 12.692C10.5562 16.4494 13.5506 19.4438 17.308 21.0564L19.1902 18.4239C19.2671 18.3163 19.3793 18.2392 19.5073 18.2059C19.6353 18.1726 19.7709 18.1853 19.8905 18.2418C21.4365 18.9761 23.0847 19.4726 24.7791 19.7145C24.9489 19.7389 25.1726 19.7658 25.4513 19.7927C25.6019 19.8081 25.7414 19.8789 25.8428 19.9914C25.9442 20.1038 26.0002 20.2499 26 20.4013H25.9988Z" fill="black"/>
</svg>
